<?xml version="1.0" encoding="UTF-8"?>
<svg width="1284px" height="180px" viewBox="0 0 1284 180" version="1.1" xmlns="http://www.w3.org/2000/svg" xmlns:xlink="http://www.w3.org/1999/xlink">
    <title>Untitled 3</title>
    <defs>
        <linearGradient x1="-0.00295534474%" y1="50.0594092%" x2="99.9852233%" y2="50.0594092%" id="linearGradient-1">
            <stop stop-color="#0836FF" offset="0%"></stop>
            <stop stop-color="#3AA2EB" offset="100%"></stop>
        </linearGradient>
        <path d="M30.66,42.64 L0,73.32 L30.66,104 L36.66,110 L73.32,73.34 L36.64,36.66 L30.66,42.64 Z M51.66,21.64 L47.66,25.64 L95.31,73.28 L47.63,121 L51.63,125 L73.3,146.68 L146.59,73.36 L73.3,0 L51.66,21.64 Z" id="path-2"></path>
        <linearGradient x1="-0.121137712%" y1="50.5328696%" x2="99.8788623%" y2="50.5328696%" id="linearGradient-4">
            <stop stop-color="#0507B6" offset="0%"></stop>
            <stop stop-color="#050BB8" offset="20%"></stop>
            <stop stop-color="#0718BF" offset="40%"></stop>
            <stop stop-color="#092CCA" offset="61%"></stop>
            <stop stop-color="#0C49D9" offset="82%"></stop>
            <stop stop-color="#0F68EA" offset="100%"></stop>
        </linearGradient>
        <polygon id="path-5" points="41.32 17.34 24.54 34.12 0 58.66 24.54 83.2 41.32 99.98 58.65 117.31 117.28 58.66 58.65 3.55271368e-15"></polygon>
        <linearGradient x1="0.53308322%" y1="48.1595772%" x2="100.533083%" y2="48.1595772%" id="linearGradient-7">
            <stop stop-color="#0836FF" offset="0%"></stop>
            <stop stop-color="#3AA2EB" offset="100%"></stop>
        </linearGradient>
    </defs>
    <g id="Page-1" stroke="none" stroke-width="1" fill="none" fill-rule="evenodd">
        <g id="Viewer_Swoosh2023">
            <path d="M1283.52,177.69 C1283.38,177.17 1283.23,176.69 1283.08,176.13 C1282.76,175.13 1282.43,174.04 1282.08,172.99 C1281.4,170.9 1280.68,168.8 1279.94,166.71 C1278.44,162.523333 1276.85333,158.343333 1275.18,154.17 C1261.57,150.48 1247.9,147.51 1234.18,145.04 C1220.46,142.57 1206.63,140.64 1192.8,139.18 C1165.1705,136.288502 1137.37727,135.266176 1109.61,136.12 C1082.02,136.9 1054.47,138.75 1027.07,141.87 C1013.37,143.44 999.71,145.32 986.12,147.59 C979.32,148.73 972.54,149.976667 965.78,151.33 C962.386667,151.996667 959.01,152.713333 955.65,153.48 C952.27,154.25 948.94,155.02 945.53,155.93 C948.53,156.07 951.44,156.32 954.37,156.58 C968.22,154.22 982.15,152.5 996.1,151.13 C1010.05,149.76 1024.04,148.8 1038.03,148.13 C1052.02,147.46 1066.03,147.13 1080.03,147.13 C1087.03,147.13 1094.03,147.19 1101.03,147.31 C1108.03,147.45 1115.03,147.63 1121.96,147.95 C1149.7275,149.193251 1177.37453,152.370956 1204.7,157.46 C1218.32,160.02 1231.8,163.08 1245.14,166.64 C1251.80667,168.433333 1258.40333,170.366667 1264.93,172.44 C1268.19,173.44 1271.44,174.56 1274.64,175.69 C1276.24,176.26 1277.83,176.83 1279.41,177.42 L1281.74,178.31 L1282.88,178.76 L1283.43,178.99 L1283.9,179.18 C1283.9,179.06 1283.9,178.94 1283.9,178.82 L1283.81,178.43 L1283.52,177.69 Z" id="Path" fill="url(#linearGradient-1)" fill-rule="nonzero"></path>
            <path d="M307.08,54 C307.08,62.6009708 303.663278,70.8496682 297.581473,76.9314729 C291.499668,83.0132777 283.250971,86.43 274.65,86.43 L259.79,86.43 L259.79,116.15 L238.24,116.15 L238.24,21.61 L274,21.61 C291.90294,21.3146205 306.666056,35.5677375 307,53.47 L307.08,54 Z M285.46,54 C285.789017,47.6532979 280.916175,42.2390288 274.57,41.9 L259.79,41.9 L259.79,66.21 L274,66.21 C277.099542,66.1757245 280.058342,64.9107744 282.224716,62.6937579 C284.39109,60.4767414 285.587344,57.489507 285.55,54.39 L285.55,54 L285.46,54 Z" id="Shape" fill="#0F68EA" fill-rule="nonzero"></path>
            <rect id="Rectangle" fill="#0F68EA" fill-rule="nonzero" x="313.83" y="17.55" width="20.27" height="98.62"></rect>
            <path d="M414.94,48.63 L414.94,116.18 L394.67,116.18 L394.67,109.87 C389.595703,115.514723 382.251322,118.57733 374.67,118.21 C356.88,118.21 342.47,102.67 342.47,82.63 C342.47,62.59 357.11,47.05 374.67,47.05 C383.67,47.05 390.43,50.2 394.67,55.38 L394.67,49.08 L414.94,49.08 L414.94,48.63 Z M394.67,82.4 C394.67,72.27 387.91,65.97 378.67,65.97 C369.43,65.97 362.67,72.27 362.67,82.4 C362.67,92.53 369.43,98.84 378.67,98.84 C387.91,98.84 394.67,92.54 394.67,82.4" id="Shape" fill="#0F68EA" fill-rule="nonzero"></path>
            <path d="M491.27,74.86 L491.27,116.29 L471,116.29 L471,77.68 C471,69.34 465.82,65.29 459.29,65.29 C451.86,65.29 446.68,69.57 446.68,79.29 L446.68,116.22 L426.42,116.22 L426.42,48.63 L446.68,48.63 L446.68,54.93 C450.29,49.93 457.04,46.6 466.05,46.6 C479.56,46.6 491.27,56.51 491.27,74.86" id="Path" fill="#0F68EA" fill-rule="nonzero"></path>
            <path d="M574.36,82.4 C574.36,102.4 559.72,117.98 542.16,117.98 C533.16,117.98 526.39,114.83 522.16,109.65 L522.16,143 L501.85,143 L501.85,48.4 L522.12,48.4 L522.12,54.71 C527.196179,49.0689765 534.540294,46.0101527 542.12,46.38 C559.68,46.6 574.32,62.14 574.32,82.38 M554.05,82.38 C554.05,72.25 547.29,65.95 538.05,65.95 C528.81,65.95 522.05,72.25 522.05,82.38 C522.05,92.51 528.8,98.82 538.05,98.82 C547.3,98.82 554.05,92.52 554.05,82.38" id="Shape" fill="#0F68EA" fill-rule="nonzero"></path>
            <path d="M579.08,82.4 C578.987157,67.9129775 587.632301,54.7972277 600.982558,49.1711201 C614.332814,43.5450124 629.757737,46.517078 640.06175,56.7008772 C650.365762,66.8846763 653.51863,82.2736606 648.049572,95.6890189 C642.580513,109.104377 629.567115,117.902836 615.08,117.98 L614.86,117.98 C595.3114,118.191104 579.286128,102.528314 579.05,82.98 L579.05,82.98 L579.08,82.4 Z M630.420003,82.4 C630.420003,76.113747 626.632716,70.4466675 620.824589,68.0419578 C615.016461,65.6372482 608.331646,66.9686185 603.888025,71.4151011 C599.444403,75.8615836 598.117336,82.5472542 600.525784,88.3538329 C602.934232,94.1604116 608.603748,97.9440452 614.89,97.9400032 C619.010545,97.9400032 622.962178,96.3024365 625.874905,93.3878333 C628.787633,90.4732302 630.422653,86.5205444 630.420003,82.4" id="Shape" fill="#0F68EA" fill-rule="nonzero"></path>
            <path d="M656.769996,30.39 C656.769996,23.6742174 662.214217,18.23 668.93,18.23 C675.645783,18.23 681.09,23.6742174 681.09,30.39 C681.09,37.1057826 675.645783,42.5500041 668.93,42.5500041 C665.704154,42.5526561 662.609667,41.2723699 660.328648,38.9913515 C658.04763,36.7103331 656.767344,33.615846 656.769996,30.39 M658.77,48.63 L679.03,48.63 L679.03,116.18 L658.8,116.18 L658.77,48.63 Z" id="Shape" fill="#0F68EA" fill-rule="nonzero"></path>
            <path d="M755.39,74.86 L755.39,116.29 L735.13,116.29 L735.13,77.68 C735.13,69.34 729.95,65.29 723.42,65.29 C715.99,65.29 710.81,69.57 710.81,79.29 L710.81,116.22 L690.54,116.22 L690.54,48.63 L710.81,48.63 L710.81,54.93 C714.41,49.93 721.17,46.6 730.17,46.6 C743.91,46.6 755.39,56.51 755.39,74.86" id="Path" fill="#0F68EA" fill-rule="nonzero"></path>
            <path d="M791.65,68.11 L791.65,92 C791.65,97.86 796.65,98.31 805.65,97.86 L805.65,116.32 C779,119 771.38,111.11 771.38,92.2 L771.38,68.11 L760.64,68.11 L760.64,48.74 L771.45,48.74 L771.45,35.91 L791.71,29.83 L791.71,48.74 L805.71,48.74 L805.71,68.11 L791.65,68.11 Z" id="Path" fill="#0F68EA" fill-rule="nonzero"></path>
            <g id="Clipped" transform="translate(44, 0)">
                <mask id="mask-3" fill="white">
                    <use xlink:href="#path-2"></use>
                </mask>
                <g id="Shape"></g>
                <rect id="Rectangle" fill="url(#linearGradient-4)" fill-rule="nonzero" mask="url(#mask-3)" x="-0.02" y="0" width="146.61" height="146.64"></rect>
            </g>
            <g id="Clipped" transform="translate(0, 14.66)">
                <mask id="mask-6" fill="white">
                    <use xlink:href="#path-5"></use>
                </mask>
                <g id="Path"></g>
                <rect id="Rectangle" fill="url(#linearGradient-7)" fill-rule="nonzero" mask="url(#mask-6)" x="0" y="0.01" width="117.28" height="117.31"></rect>
            </g>
            <polygon id="Path" fill="#FFFFFF" fill-rule="nonzero" points="838.27 21.22 864.87 21.22 883.33 86.63 901.92 21.22 928.52 21.22 897.85 116.22 868.94 116.22"></polygon>
            <path d="M930.42,29.77 C930.42,22.5737297 936.25373,16.74 943.45,16.74 C950.64627,16.74 956.48,22.5737297 956.48,29.77 C956.48,36.9662703 950.64627,42.8 943.45,42.8 C936.25373,42.8 930.42,36.9662703 930.42,29.77 L930.42,29.77 Z M932.18,48.36 L954.71,48.36 L954.71,116.21 L932.18,116.21 L932.18,48.36 Z" id="Shape" fill="#FFFFFF" fill-rule="nonzero"></path>
            <path d="M1002.75,98.84 C1007.33307,98.9535444 1011.77422,97.2454125 1015.1,94.09 L1031.39,105.49 C1024.6,114.04 1014.29,118.11 1002.21,118.11 C978.73,118.11 964.21,102.51 964.21,82.42 C964.21,62.06 979.14,46.42 1000.31,46.42 C1020.67,46.42 1035.31056,61.75 1035.31056,82.11 C1035.32576,84.9409701 1035.00688,87.7638827 1034.36,90.52 L987.55,90.52 C990.27,97.08 996.24,98.84 1002.75,98.84 Z M1013.34,75 C1011.34,67.94 1006.01,65.5 1000.58,65.5 C994.07,65.5 989.18,68.76 987.28,75 L1013.34,75 Z" id="Shape" fill="#FFFFFF" fill-rule="nonzero"></path>
            <polygon id="Path" fill="#FFFFFF" fill-rule="nonzero" points="1142.27 48.36 1121.5 116.21 1099.5 116.21 1089.73 81.74 1080 116.21 1058 116.21 1037.24 48.36 1061.12 48.36 1070.12 85.27 1080.3 48.36 1099.3 48.36 1109.48 85.27 1118.48 48.36"></polygon>
            <path d="M1182.44,98.84 C1187.0225,98.9502537 1191.46243,97.2425884 1194.79,94.09 L1211.07,105.49 C1204.29,114.04 1193.97,118.11 1181.89,118.11 C1158.42,118.11 1143.89,102.51 1143.89,82.42 C1143.89,62.06 1158.81,46.42 1179.99,46.42 C1200.34,46.42 1214.99004,61.75 1214.99004,82.11 C1214.99442,84.9432501 1214.65868,87.7667853 1213.99,90.52 L1167.17,90.52 C1170,97.08 1175.92,98.84 1182.44,98.84 Z M1193,75 C1191,67.94 1185.68,65.5 1180.25,65.5 C1173.73,65.5 1168.85,68.76 1166.95,75 L1193,75 Z" id="Shape" fill="#FFFFFF" fill-rule="nonzero"></path>
            <path d="M1267.39,47 L1267.39,72 C1258.39,70.64 1247.04,74.72 1247.04,88.15 L1247.04,116.24 L1224.51,116.24 L1224.51,48.36 L1247,48.36 L1247,61 C1249.75,51.75 1258.3,47 1267.39,47 Z" id="Path" fill="#FFFFFF" fill-rule="nonzero"></path>
        </g>
    </g>
</svg>