<svg id="Calque_1" data-name="Calque 1" xmlns="http://www.w3.org/2000/svg" xmlns:xlink="http://www.w3.org/1999/xlink" viewBox="0 0 1283.85 179.22"><defs><style>.cls-1{fill:url(#Dégradé_sans_nom_3);}.cls-2{fill:none;}.cls-3{fill:url(#Dégradé_sans_nom_2);}.cls-4{fill:#0f68ea;}.cls-5{clip-path:url(#clip-path);}.cls-6{fill:url(#Dégradé_sans_nom);}.cls-7{clip-path:url(#clip-path-2);}.cls-8{mask:url(#mask);}.cls-9{fill:url(#Dégradé_sans_nom_2-2);}.cls-10{fill:#001636;}</style><linearGradient id="Dégradé_sans_nom_3" x1="-148.16" y1="-413.95" x2="-147.16" y2="-413.95" gradientTransform="matrix(117.28, 0, 0, -117.28, 17376.83, -48476.89)" gradientUnits="userSpaceOnUse"><stop offset="0" stop-color="#fff"/><stop offset="1" stop-color="#ccc"/></linearGradient><linearGradient id="Dégradé_sans_nom_2" x1="945.52" y1="157.53" x2="1283.85" y2="157.53" gradientUnits="userSpaceOnUse"><stop offset="0" stop-color="#0836ff"/><stop offset="1" stop-color="#3aa2eb"/></linearGradient><clipPath id="clip-path"><path class="cls-2" d="M74.66,42.64,44,73.32,74.66,104l6,6,36.66-36.66L80.64,36.66Zm21-21-4,4,47.65,47.64L91.63,121l4,4,21.67,21.68,73.29-73.32L117.3,0Z"/></clipPath><linearGradient id="Dégradé_sans_nom" x1="-148.16" y1="-412.74" x2="-147.16" y2="-412.74" gradientTransform="matrix(146.61, 0, 0, -146.61, 21765.54, -60437.71)" gradientUnits="userSpaceOnUse"><stop offset="0" stop-color="#0507b6"/><stop offset="0.2" stop-color="#050bb8"/><stop offset="0.4" stop-color="#0718bf"/><stop offset="0.61" stop-color="#092cca"/><stop offset="0.82" stop-color="#0c49d9"/><stop offset="1" stop-color="#0f68ea"/></linearGradient><clipPath id="clip-path-2"><polygon class="cls-2" points="41.32 32 24.54 48.78 0 73.32 24.54 97.86 41.32 114.64 58.65 131.97 117.28 73.32 58.65 14.66 41.32 32"/></clipPath><mask id="mask" x="0" y="14.67" width="117.28" height="117.31" maskUnits="userSpaceOnUse"><rect class="cls-1" y="14.67" width="117.28" height="117.31"/></mask><linearGradient id="Dégradé_sans_nom_2-2" x1="-148.16" y1="-413.95" x2="-147.16" y2="-413.95" gradientTransform="matrix(117.28, 0, 0, -117.28, 17376.83, -48476.89)" xlink:href="#Dégradé_sans_nom_2"/></defs><title>Viewer_Swoosh2023</title><path class="cls-3" d="M1283.52,177.69c-.14-.52-.29-1-.44-1.56-.32-1-.65-2.09-1-3.14-.68-2.09-1.4-4.19-2.14-6.28q-2.25-6.28-4.76-12.54c-13.61-3.69-27.28-6.66-41-9.13s-27.55-4.4-41.38-5.86a617.05,617.05,0,0,0-83.19-3.06c-27.59.78-55.14,2.63-82.54,5.75-13.7,1.57-27.36,3.45-40.95,5.72q-10.2,1.71-20.34,3.74-5.09,1-10.13,2.15c-3.38.77-6.71,1.54-10.12,2.45,3,.14,5.91.39,8.84.65,13.85-2.36,27.78-4.08,41.73-5.45s27.94-2.33,41.93-3,28-1,42-1q10.5,0,21,.18c7,.14,14,.32,20.93.64a598,598,0,0,1,82.74,9.51q20.43,3.84,40.44,9.18,10,2.69,19.79,5.8c3.26,1,6.51,2.12,9.71,3.25,1.6.57,3.19,1.14,4.77,1.73l2.33.89,1.14.45.55.23.47.19c0-.12,0-.24,0-.36l-.09-.39Z"/><path class="cls-4" d="M307.08,54a32.43,32.43,0,0,1-32.43,32.43H259.79v29.72H238.24V21.61H274a32.47,32.47,0,0,1,33,31.86Zm-21.62,0A11.52,11.52,0,0,0,274.57,41.9H259.79V66.21H274a11.68,11.68,0,0,0,11.55-11.82V54Z"/><rect class="cls-4" x="313.83" y="17.55" width="20.27" height="98.62"/><path class="cls-4" d="M414.94,48.63v67.55H394.67v-6.31a25.25,25.25,0,0,1-20,8.34c-17.79,0-32.2-15.54-32.2-35.58s14.64-35.58,32.2-35.58c9,0,15.76,3.15,20,8.33v-6.3h20.27ZM394.67,82.4c0-10.13-6.76-16.43-16-16.43s-16,6.3-16,16.43,6.76,16.44,16,16.44,16-6.3,16-16.44"/><path class="cls-4" d="M491.27,74.86v41.43H471V77.68c0-8.34-5.18-12.39-11.71-12.39-7.43,0-12.61,4.28-12.61,14v36.93H426.42V48.63h20.26v6.3c3.61-5,10.36-8.33,19.37-8.33,13.51,0,25.22,9.91,25.22,28.26"/><path class="cls-4" d="M574.36,82.4c0,20-14.64,35.58-32.2,35.58-9,0-15.77-3.15-20-8.33V143H501.85V48.4h20.27v6.31a25.25,25.25,0,0,1,20-8.33c17.56.22,32.2,15.76,32.2,36m-20.27,0c0-10.13-6.76-16.43-16-16.43s-16,6.3-16,16.43,6.75,16.44,16,16.44,16-6.3,16-16.44"/><path class="cls-4" d="M579.08,82.4a35.81,35.81,0,1,1,36,35.58h-.22a35.43,35.43,0,0,1-35.81-35h0Zm51.34,0a15.54,15.54,0,1,0-15.53,15.54A15.53,15.53,0,0,0,630.42,82.4"/><path class="cls-4" d="M656.77,30.39a12.16,12.16,0,1,1,12.16,12.16,12.15,12.15,0,0,1-12.16-12.16m2,18.24h20.26v67.55H658.8Z"/><path class="cls-4" d="M755.39,74.86v41.43H735.13V77.68c0-8.34-5.18-12.39-11.71-12.39-7.43,0-12.61,4.28-12.61,14v36.93H690.54V48.63h20.27v6.3c3.6-5,10.36-8.33,19.36-8.33,13.74,0,25.22,9.91,25.22,28.26"/><path class="cls-4" d="M791.65,68.11V92c0,5.86,5,6.31,14,5.86v18.46C779,119,771.38,111.11,771.38,92.2V68.11H760.64V48.74h10.81V35.91l20.26-6.08V48.74h14V68.11Z"/><g class="cls-5"><rect class="cls-6" x="43.98" width="146.61" height="146.64"/></g><g class="cls-7"><g class="cls-8"><rect class="cls-9" y="14.67" width="117.28" height="117.31"/></g></g><path class="cls-10" d="M838.27,21.22h26.6l18.46,65.41,18.59-65.41h26.6l-30.67,95H868.94Z"/><path class="cls-10" d="M930.42,29.77a13,13,0,0,1,26.06,0,13,13,0,0,1-26.06,0Zm1.76,18.59h22.53v67.85H932.18Z"/><path class="cls-10" d="M1002.75,98.84a17.32,17.32,0,0,0,12.35-4.75l16.29,11.4c-6.79,8.55-17.1,12.62-29.18,12.62-23.48,0-38-15.6-38-35.69,0-20.36,14.93-36,36.1-36,20.36,0,35,15.33,35,35.69a35.93,35.93,0,0,1-.95,8.41H987.55C990.27,97.08,996.24,98.84,1002.75,98.84ZM1013.34,75c-2-7.06-7.33-9.5-12.76-9.5-6.51,0-11.4,3.26-13.3,9.5Z"/><path class="cls-10" d="M1142.27,48.36l-20.77,67.85h-22l-9.77-34.47L1080,116.21h-22l-20.76-67.85h23.88l9,36.91,10.18-36.91h19l10.18,36.91,9-36.91Z"/><path class="cls-10" d="M1182.44,98.84a17.35,17.35,0,0,0,12.35-4.75l16.28,11.4c-6.78,8.55-17.1,12.62-29.18,12.62-23.47,0-38-15.6-38-35.69,0-20.36,14.92-36,36.1-36,20.35,0,35,15.33,35,35.69a35.4,35.4,0,0,1-1,8.41h-46.82C1170,97.08,1175.92,98.84,1182.44,98.84ZM1193,75c-2-7.06-7.32-9.5-12.75-9.5-6.52,0-11.4,3.26-13.3,9.5Z"/><path class="cls-10" d="M1267.39,47V72c-9-1.36-20.35,2.72-20.35,16.15v28.09h-22.53V48.36H1247V61C1249.75,51.75,1258.3,47,1267.39,47Z"/></svg>